<?xml version="1.0" encoding="utf-8"?>
<!-- Generator: Adobe Illustrator 22.0.1, SVG Export Plug-In . SVG Version: 6.00 Build 0)  -->
<svg version="1.1" id="Layer_1" xmlns="http://www.w3.org/2000/svg" xmlns:xlink="http://www.w3.org/1999/xlink" x="0px" y="0px"
	 viewBox="0 0 205.2 37.5" style="enable-background:new 0 0 205.2 37.5;" xml:space="preserve">
<style type="text/css">
	.st0{display:none;}
	.st1{display:inline;fill:#FFFFFF;}
	.st2{display:inline;fill:none;stroke:#000000;stroke-width:8;stroke-linecap:round;stroke-miterlimit:10;}
	.st3{fill:#FFFFFF;}
</style>
<g id="Layer_4" class="st0">
	<path class="st1" d="M102,17.9c-3.7-0.7-6-1.3-7.3-2.7c-1.4-1.4-2-3.6-2.7-7.3c-0.1-0.3-0.3-0.5-0.6-0.5c-0.3,0-0.6,0.2-0.6,0.5
		c-0.7,3.7-1.3,6-2.7,7.3c-1.4,1.4-3.6,2-7.3,2.7c-0.3,0.1-0.5,0.3-0.5,0.6c0,0.3,0.2,0.6,0.5,0.6c3.7,0.7,6,1.3,7.3,2.7
		c1.4,1.4,2,3.6,2.7,7.3c0.1,0.3,0.3,0.5,0.6,0.5c0.3,0,0.6-0.2,0.6-0.5c0.7-3.7,1.3-6,2.7-7.3c1.4-1.4,3.6-2,7.3-2.7
		c0.3-0.1,0.5-0.3,0.5-0.6S102.3,18,102,17.9z"/>
</g>
<g id="Layer_2_1_" class="st0">
	<path class="st2" d="M-81.1-45.6c6.7-9.8,10.6-21.7,10.6-34.5c0-33.8-27.4-61.3-61.3-61.3s-61.3,27.4-61.3,61.3
		c0,33.8,27.4,61.3,61.3,61.3c14.6,0,28-5.1,38.6-13.7"/>
</g>
<g>
	<path class="st3" d="M18.1,28.3l-3.6-14.2l-3.6,14.2H6.1L0.2,7.6h4.9l3.6,15l3.9-15h3.4l3.9,15l3.6-15h5l-5.9,20.7H18.1z"/>
	<path class="st3" d="M30.7,28.3V7.6h4.4v20.7H30.7z"/>
	<path class="st3" d="M39.2,28.3V7.6h4.4v16.8h8.8v3.9H39.2z"/>
	<path class="st3" d="M55.5,28.3V7.6h4.4v16.8h8.8v3.9H55.5z"/>
	<path class="st3" d="M78.7,17.9c0-6.4,4.8-10.7,11-10.7c4.6,0,7.2,2.5,8.7,5.1l-3.8,1.9c-0.9-1.7-2.7-3-4.9-3
		c-3.8,0-6.5,2.9-6.5,6.8s2.7,6.8,6.5,6.8c2.1,0,4-1.3,4.9-3l3.8,1.8c-1.5,2.6-4.1,5.1-8.7,5.1C83.5,28.7,78.7,24.3,78.7,17.9z"/>
	<path class="st3" d="M115.2,28.3v-8.7h-9.8v8.7H101V7.6h4.4v8.1h9.8V7.6h4.4v20.7H115.2z"/>
	<path class="st3" d="M138,28.3l-1.3-3.5h-8.9l-1.3,3.5h-5l8-20.7h5.5l8,20.7H138z M132.3,12l-3.2,8.9h6.5L132.3,12z"/>
	<path class="st3" d="M159.2,28.3l-9.9-13.5v13.5h-4.4V7.6h4.5l9.6,13v-13h4.4v20.7H159.2z"/>
	<path class="st3" d="M166.6,17.9c0-6.6,5-10.7,11-10.7c4.3,0,7,2.2,8.6,4.6l-3.7,2c-0.9-1.5-2.7-2.7-4.9-2.7
		c-3.8,0-6.5,2.9-6.5,6.8s2.7,6.8,6.5,6.8c1.8,0,3.6-0.8,4.4-1.6v-2.5h-5.5v-3.9h9.9v7.9c-2.1,2.4-5.1,3.9-8.8,3.9
		C171.6,28.7,166.6,24.5,166.6,17.9z"/>
	<path class="st3" d="M189.9,28.3V7.6h14.7v3.9h-10.2v4.4h10v3.9h-10v4.7h10.2v3.9H189.9z"/>
</g>
</svg>
