<?xml version="1.0" encoding="utf-8"?>
<!-- Generator: Adobe Illustrator 22.0.1, SVG Export Plug-In . SVG Version: 6.00 Build 0)  -->
<svg version="1.1" id="Layer_1" xmlns="http://www.w3.org/2000/svg" xmlns:xlink="http://www.w3.org/1999/xlink" x="0px" y="0px"
	 viewBox="0 0 243 243" style="enable-background:new 0 0 243 243;" xml:space="preserve">
<style type="text/css">
	.st0{display:none;}
	.st1{display:inline;}
	.st2{fill:none;stroke:#FFFFFF;stroke-width:14;stroke-linecap:round;stroke-linejoin:round;stroke-miterlimit:10;}
</style>
<g id="Layer_1_3_" class="st0">
	<g id="Layer_1_2_" class="st1">
		<g id="Layer_1_1_">
			<g>
				<path d="M121.5,243C54.5,243,0,188.5,0,121.5S54.5,0,121.5,0S243,54.5,243,121.5S188.5,243,121.5,243z M121.5,18
					C64.4,18,18,64.4,18,121.5S64.4,225,121.5,225S225,178.6,225,121.5S178.6,18,121.5,18z"/>
			</g>
		</g>
		<g id="Layer_2_1_">
		</g>
	</g>
	<g id="Layer_2_2_" class="st1">
		<g id="Layer_3_2_">
			<path d="M170.3,83.4c-17.8,0-45.3,24-53,31.1c-0.5,0.3-1,0.6-1.4,1.1c-14.3,13.4-34.8,27.8-43.1,27.8c-12,0-21.8-9.8-21.8-21.8
				s9.8-21.8,21.8-21.8c1.8,0,9.1,1,26.1,13.7c1.4,1.1,4.6,3.4,4.6,3.4l12.7-10.6c0,0-5.8-4.5-7.6-5.8c-15.2-11.4-27-16.9-35.8-16.9
				c-21,0-38.1,17.1-38.1,38.1c0,21,17.1,38.1,38.1,38.1c17.8,0,45.3-24,53-31.1c0.5-0.3,1-0.6,1.4-1.1
				c14.3-13.4,34.8-27.8,43.1-27.8c12,0,21.8,9.8,21.8,21.8c0,12-9.8,21.8-21.8,21.8c-1.8,0-9-1-25.7-13.4c-1.4-1-4.6-3.5-4.6-3.5
				l-12.6,10.4c0,0,3.9,3.5,7.5,6.1c15.2,11.3,26.5,16.6,35.4,16.6c21,0,38.1-17.1,38.1-38.1C208.4,100.5,191.3,83.4,170.3,83.4z"/>
		</g>
	</g>
</g>
<g id="Layer_2_3_" class="st0">
	<g class="st1">
		<path class="st2" d="M234.8,121.5c0,62.6-50.7,113.3-113.3,113.3c-62.6,0-113.3-50.7-113.3-113.3C8.2,58.9,58.9,8.2,121.5,8.2
			C184.1,8.2,234.8,58.9,234.8,121.5z"/>
		<g>
			<line class="st2" x1="180.1" y1="60.4" x2="60.7" y2="179.8"/>
			<path class="st2" d="M76.4,163.8c-11.6-11.6,0.5-47.1,29.3-75.9c14.8-14.8,31.1-25.6,40.9-30.5v36.4"/>
			<line class="st2" x1="114.1" y1="126.4" x2="161.5" y2="126.4"/>
			<path class="st2" d="M94.4,146.1h52.2C119.1,171.2,86.4,174,76.4,164"/>
			<path class="st2" d="M180.2,60.2c9,9,6.9,26.8-4.4,46.5h-42"/>
		</g>
	</g>
</g>
<g>
	<path d="M217.7,59.8l-40.8,132.7h-24.6L123.4,76.6H123L94,192.5H68.5L28.4,59.8h20.9L81,173.5h0.4l28.4-113.7h26.9l28.8,113.7h0.4
		l31.7-113.7H217.7z"/>
</g>
</svg>
