<?xml version="1.0" encoding="utf-8"?>
<!-- Generator: Adobe Illustrator 22.0.1, SVG Export Plug-In . SVG Version: 6.00 Build 0)  -->
<svg version="1.1" id="Layer_1" xmlns="http://www.w3.org/2000/svg" xmlns:xlink="http://www.w3.org/1999/xlink" x="0px" y="0px"
	 viewBox="0 0 98 68" style="enable-background:new 0 0 98 68;" xml:space="preserve">
<style type="text/css">
	.st0{fill:#FFFFFF;}
</style>
<title>Combined Shape</title>
<desc>Created with Sketch.</desc>
<g>
	<path class="st0" d="M81.5,6.8L67.7,41.4l-14-34.5h-9.4l-14,34.5L16.5,6.8H3.6l22.1,54.3h9.2L49,26.5l14.2,34.7h9.2L94.4,6.8H81.5z
		 M70.4,58.2h-5.2L49,18.6L32.8,58.2h-5.2L8,9.8h6.4l15.8,39.5L46.3,9.8h5.4l16.1,39.5L83.6,9.8H90L70.4,58.2z"/>
	<polygon class="st0" points="85.4,12 69,53 66.5,53 50,13.3 48,13.3 31.5,53 29,53 12.6,12 11.9,12.3 28.4,53.5 28.5,53.8 32,53.8 
		48.5,14 49.5,14 66,53.8 69.5,53.8 86.1,12.3 	"/>
</g>
</svg>
