<?xml version="1.0" encoding="utf-8"?>
<!-- Generator: Adobe Illustrator 22.0.1, SVG Export Plug-In . SVG Version: 6.00 Build 0)  -->
<svg version="1.1" id="Layer_1" xmlns="http://www.w3.org/2000/svg" xmlns:xlink="http://www.w3.org/1999/xlink" x="0px" y="0px"
	 viewBox="0 0 98 68" style="enable-background:new 0 0 98 68;" xml:space="preserve">
<title>Combined Shape</title>
<desc>Created with Sketch.</desc>
<g>
	<path d="M90.3,10.3L70.6,58.7h-4.8L49.2,18L32.6,58.7h-4.8L8.1,10.3h5.8l15.7,39.2l1.1,0l15.9-39.2h5l16,39.3l1.1,0l15.7-39.3H90.3
		 M93,8.5h-2.7h-5.8h-1.2l-0.5,1.1L68.2,46L53.4,9.6l-0.5-1.1h-1.2h-5h-1.2L45,9.6L30.2,46L15.6,9.6l-0.5-1.1h-1.2H8.1H5.4l1,2.5
		l19.6,48.4l0.5,1.1h1.2h4.8h1.2l0.5-1.1l14.9-36.5l14.9,36.5l0.5,1.1h1.2h4.8h1.2l0.5-1.1L92,11L93,8.5L93,8.5z"/>
	<g>
		<polygon points="70,54.6 66.4,54.6 49.7,14.3 48.7,14.3 32,54.6 28.4,54.6 28.3,54.3 11.6,12.5 12.3,12.2 28.9,53.8 31.4,53.8 
			48.2,13.5 50.2,13.5 67,53.8 69.5,53.8 86.1,12.2 86.8,12.5 		"/>
	</g>
</g>
</svg>
